<svg width="357" height="34" viewBox="0 0 357 34" fill="none" xmlns="http://www.w3.org/2000/svg">
<path d="M60.321 28V10.5455H72.2358V13.9716H64.5398V17.5511H71.4773V20.9858H64.5398V28H60.321ZM78.5788 10.5455V28H74.3601V10.5455H78.5788ZM96.0824 10.5455V28H92.5028L85.5568 17.9261H85.446V28H81.2273V10.5455H84.858L91.7273 20.6023H91.8722V10.5455H96.0824ZM102.511 28H97.9766L103.866 10.5455H109.482L115.371 28H110.837L106.738 14.9432H106.602L102.511 28ZM101.906 21.1307H111.383V24.3352H101.906V21.1307ZM132.106 10.5455V28H128.526L121.58 17.9261H121.469V28H117.251V10.5455H120.881L127.751 20.6023H127.896V10.5455H132.106ZM150.602 16.8693H146.341C146.284 16.4318 146.168 16.0369 145.991 15.6847C145.815 15.3324 145.582 15.0312 145.293 14.7812C145.003 14.5312 144.659 14.3409 144.261 14.2102C143.869 14.0739 143.435 14.0057 142.957 14.0057C142.111 14.0057 141.381 14.2131 140.767 14.6278C140.159 15.0426 139.69 15.642 139.361 16.4261C139.037 17.2102 138.875 18.1591 138.875 19.2727C138.875 20.4318 139.04 21.4034 139.369 22.1875C139.705 22.9659 140.173 23.554 140.776 23.9517C141.384 24.3437 142.102 24.5398 142.932 24.5398C143.398 24.5398 143.821 24.4801 144.202 24.3608C144.588 24.2415 144.926 24.0682 145.216 23.8409C145.511 23.608 145.753 23.3267 145.94 22.9972C146.134 22.6619 146.267 22.2841 146.341 21.8636L150.602 21.8892C150.528 22.6619 150.304 23.4233 149.929 24.1733C149.56 24.9233 149.051 25.608 148.403 26.2273C147.756 26.8409 146.966 27.3295 146.034 27.6932C145.108 28.0568 144.045 28.2386 142.847 28.2386C141.267 28.2386 139.852 27.892 138.602 27.1989C137.358 26.5 136.375 25.483 135.653 24.1477C134.932 22.8125 134.571 21.1875 134.571 19.2727C134.571 17.3523 134.938 15.7244 135.67 14.3892C136.403 13.054 137.395 12.0398 138.645 11.3466C139.895 10.6534 141.295 10.3068 142.847 10.3068C143.903 10.3068 144.881 10.4545 145.778 10.75C146.676 11.0398 147.466 11.4659 148.148 12.0284C148.83 12.5852 149.384 13.2699 149.81 14.0824C150.236 14.8949 150.5 15.8239 150.602 16.8693ZM153.016 28V10.5455H165.187V13.9716H157.235V17.5511H164.565V20.9858H157.235V24.5739H165.187V28H153.016ZM187.84 10.5455V28H184.261L177.315 17.9261H177.204V28H172.985V10.5455H176.616L183.485 20.6023H183.63V10.5455H187.84ZM206.967 19.2727C206.967 21.1932 206.598 22.821 205.859 24.1562C205.121 25.4915 204.121 26.5057 202.859 27.1989C201.604 27.892 200.195 28.2386 198.632 28.2386C197.064 28.2386 195.652 27.8892 194.396 27.1903C193.141 26.4915 192.143 25.4773 191.405 24.1477C190.672 22.8125 190.305 21.1875 190.305 19.2727C190.305 17.3523 190.672 15.7244 191.405 14.3892C192.143 13.054 193.141 12.0398 194.396 11.3466C195.652 10.6534 197.064 10.3068 198.632 10.3068C200.195 10.3068 201.604 10.6534 202.859 11.3466C204.121 12.0398 205.121 13.054 205.859 14.3892C206.598 15.7244 206.967 17.3523 206.967 19.2727ZM202.655 19.2727C202.655 18.1364 202.493 17.1761 202.169 16.392C201.851 15.608 201.391 15.0142 200.788 14.6108C200.192 14.2074 199.473 14.0057 198.632 14.0057C197.797 14.0057 197.078 14.2074 196.476 14.6108C195.874 15.0142 195.411 15.608 195.087 16.392C194.768 17.1761 194.609 18.1364 194.609 19.2727C194.609 20.4091 194.768 21.3693 195.087 22.1534C195.411 22.9375 195.874 23.5312 196.476 23.9347C197.078 24.3381 197.797 24.5398 198.632 24.5398C199.473 24.5398 200.192 24.3381 200.788 23.9347C201.391 23.5312 201.851 22.9375 202.169 22.1534C202.493 21.3693 202.655 20.4091 202.655 19.2727ZM209.43 28V10.5455H216.641C217.947 10.5455 219.075 10.7812 220.024 11.2528C220.979 11.7187 221.714 12.3892 222.232 13.2642C222.749 14.1335 223.007 15.1648 223.007 16.358C223.007 17.5682 222.743 18.5966 222.214 19.4432C221.686 20.2841 220.936 20.9261 219.964 21.3693C218.993 21.8068 217.842 22.0256 216.513 22.0256H211.953V18.7017H215.729C216.365 18.7017 216.896 18.6193 217.322 18.4545C217.754 18.2841 218.081 18.0284 218.303 17.6875C218.524 17.3409 218.635 16.8977 218.635 16.358C218.635 15.8182 218.524 15.3722 218.303 15.0199C218.081 14.6619 217.754 14.3949 217.322 14.2188C216.891 14.0369 216.359 13.946 215.729 13.946H213.649V28H209.43ZM219.257 20.0227L223.604 28H219.001L214.74 20.0227H219.257ZM229.506 28L224.426 10.5455H229.088L231.722 21.983H231.866L234.875 10.5455H238.676L241.685 22.0085H241.83L244.472 10.5455H249.125L244.054 28H239.989L236.844 17.4148H236.707L233.562 28H229.506ZM252.745 28H248.211L254.1 10.5455H259.717L265.606 28H261.072L256.972 14.9432H256.836L252.745 28ZM252.14 21.1307H261.617V24.3352H252.14V21.1307ZM264.835 10.5455H269.548L273.238 17.8494H273.391L277.082 10.5455H281.795L275.411 22.1705V28H271.218V22.1705L264.835 10.5455ZM288.719 28V10.5455H295.998C297.305 10.5455 298.398 10.7301 299.279 11.0994C300.165 11.4687 300.83 11.9858 301.273 12.6506C301.722 13.3153 301.947 14.0852 301.947 14.9602C301.947 15.625 301.808 16.2188 301.529 16.7415C301.251 17.2585 300.867 17.6875 300.379 18.0284C299.89 18.3693 299.325 18.608 298.683 18.7443V18.9148C299.387 18.9489 300.038 19.1392 300.634 19.4858C301.237 19.8324 301.719 20.3153 302.083 20.9347C302.447 21.5483 302.629 22.2756 302.629 23.1165C302.629 24.054 302.39 24.892 301.913 25.6307C301.435 26.3636 300.745 26.9432 299.842 27.3693C298.938 27.7898 297.842 28 296.552 28H288.719ZM292.938 24.5994H295.546C296.461 24.5994 297.134 24.4261 297.566 24.0795C298.004 23.733 298.222 23.25 298.222 22.6307C298.222 22.1818 298.117 21.7955 297.907 21.4716C297.697 21.142 297.398 20.8892 297.012 20.7131C296.626 20.5312 296.163 20.4403 295.623 20.4403H292.938V24.5994ZM292.938 17.7216H295.273C295.734 17.7216 296.143 17.6449 296.501 17.4915C296.859 17.3381 297.137 17.1165 297.336 16.8267C297.54 16.5369 297.643 16.1875 297.643 15.7784C297.643 15.1932 297.435 14.733 297.021 14.3977C296.606 14.0625 296.046 13.8949 295.342 13.8949H292.938V17.7216ZM308.433 28H303.898L309.788 10.5455H315.404L321.293 28H316.759L312.66 14.9432H312.523L308.433 28ZM307.827 21.1307H317.305V24.3352H307.827V21.1307ZM338.028 10.5455V28H334.448L327.502 17.9261H327.391V28H323.173V10.5455H326.803L333.673 20.6023H333.817V10.5455H338.028ZM340.68 28V10.5455H344.899V17.9261H345.129L350.899 10.5455H355.868L349.68 18.3352L355.979 28H350.933L346.587 21.1392L344.899 23.2699V28H340.68Z" fill="#183BB9"/>
<path d="M13.6998 4.40499V5.66356H14.3909V30.4945H15.4122V26.6879H19.8069V30.4945H31.6911V26.6879H36.0858V30.4945H37.1071V5.67388H37.7983V4.41531H13.6998V4.40499ZM17.3414 25.811H15.4226V23.8922H17.3414V25.811ZM17.3414 23.6033H15.4226V21.6845H17.3414V23.6033ZM17.3414 21.406H15.4226V19.4872H17.3414V21.406ZM17.3414 19.1983H15.4226V17.2795H17.3414V19.1983ZM17.3414 17.001H15.4226V15.0822H17.3414V17.001ZM17.3414 14.7933H15.4226V12.8745H17.3414V14.7933ZM17.3414 12.5857H15.4226V10.6669H17.3414V12.5857ZM17.3414 10.3884H15.4226V8.46955H17.3414V10.3884ZM17.3414 8.1807H15.4226V6.2619H17.3414V8.1807V8.1807ZM19.8172 25.811H17.8984V23.8922H19.8172V25.811ZM19.8172 23.6033H17.8984V21.6845H19.8172V23.6033ZM19.8172 21.406H17.8984V19.4872H19.8172V21.406ZM19.8172 19.1983H17.8984V17.2795H19.8172V19.1983ZM19.8172 17.001H17.8984V15.0822H19.8172V17.001ZM19.8172 14.7933H17.8984V12.8745H19.8172V14.7933ZM19.8172 12.5857H17.8984V10.6669H19.8172V12.5857ZM19.8172 10.3884H17.8984V8.46955H19.8172V10.3884ZM19.8172 8.1807H17.8984V6.2619H19.8172V8.1807V8.1807ZM20.364 6.2619H22.1693V10.3884H20.364V6.2619ZM22.1899 28.0083H20.3846V23.8819H22.1899V28.0083ZM22.1899 23.6033H20.3846V19.4769H22.1899V23.6033ZM22.1899 19.1983H20.3846V15.0719H22.1899V19.1983ZM22.1899 14.7933H20.3846V10.6669H22.1899V14.7933ZM22.582 6.2619H24.3873V10.3884H22.582V6.2619ZM24.4079 28.0083H22.6026V23.8819H24.4079V28.0083ZM24.4079 23.6033H22.6026V19.4769H24.4079V23.6033ZM24.4079 19.1983H22.6026V15.0719H24.4079V19.1983ZM24.4079 14.7933H22.6026V10.6669H24.4079V14.7933ZM24.7896 6.2619H26.5949V10.3884H24.7896V6.2619ZM26.6259 28.0083H24.8206V23.8819H26.6259V28.0083ZM26.6259 23.6033H24.8206V19.4769H26.6259V23.6033ZM26.6259 19.1983H24.8206V15.0719H26.6259V19.1983ZM26.6259 14.7933H24.8206V10.6669H26.6259V14.7933ZM27.0076 6.2619H28.8129V10.3884H27.0076V6.2619ZM28.8335 28.0083H27.0282V23.8819H28.8335V28.0083ZM28.8335 23.6033H27.0282V19.4769H28.8335V23.6033ZM28.8335 19.1983H27.0282V15.0719H28.8335V19.1983ZM28.8335 14.7933H27.0282V10.6669H28.8335V14.7933ZM29.2256 6.2619H31.0309V10.3884H29.2256V6.2619ZM31.0515 28.0083H29.2462V23.8819H31.0515V28.0083ZM31.0515 23.6033H29.2462V19.4769H31.0515V23.6033ZM31.0515 19.1983H29.2462V15.0719H31.0515V19.1983ZM31.0515 14.7933H29.2462V10.6669H31.0515V14.7933ZM33.6202 25.811H31.7014V23.8922H33.6202V25.811ZM33.6202 23.6033H31.7014V21.6845H33.6202V23.6033ZM33.6202 21.406H31.7014V19.4872H33.6202V21.406ZM33.6202 19.1983H31.7014V17.2795H33.6202V19.1983ZM33.6202 17.001H31.7014V15.0822H33.6202V17.001ZM33.6202 14.7933H31.7014V12.8745H33.6202V14.7933ZM33.6202 12.5857H31.7014V10.6669H33.6202V12.5857ZM33.6202 10.3884H31.7014V8.46955H33.6202V10.3884ZM33.6202 8.1807H31.7014V6.2619H33.6202V8.1807V8.1807ZM36.0961 25.811H34.1773V23.8922H36.0961V25.811ZM36.0961 23.6033H34.1773V21.6845H36.0961V23.6033ZM36.0961 21.406H34.1773V19.4872H36.0961V21.406ZM36.0961 19.1983H34.1773V17.2795H36.0961V19.1983ZM36.0961 17.001H34.1773V15.0822H36.0961V17.001ZM36.0961 14.7933H34.1773V12.8745H36.0961V14.7933ZM36.0961 12.5857H34.1773V10.6669H36.0961V12.5857ZM36.0961 10.3884H34.1773V8.46955H36.0961V10.3884ZM36.0961 8.1807H34.1773V6.2619H36.0961V8.1807V8.1807ZM5.56033 1.06256H0.618896V30.3604H1.54735V26.5434H4.95168V30.3604H13.3077V0L5.56033 1.06256ZM2.88845 25.7181H1.54735V22.9328H2.88845V25.7181ZM2.88845 22.8296H1.54735V20.0443H2.88845V22.8296ZM2.88845 19.7348H1.54735V17.1557H2.88845V19.7348ZM2.88845 16.8463H1.54735V14.0609H2.88845V16.8463ZM2.88845 13.7514H1.54735V11.1724H2.88845V13.7514ZM2.88845 10.8629H1.54735V8.07754H2.88845V10.8629ZM2.88845 7.76805H1.54735V5.08586H2.88845V7.76805ZM2.88845 4.87953H1.54735V2.19734H2.88845V4.87953ZM4.95168 25.7181H3.50742V22.9328H4.95168V25.7181ZM4.95168 22.8296H3.50742V20.0443H4.95168V22.8296ZM4.95168 19.7348H3.50742V17.1557H4.95168V19.7348ZM4.95168 16.8463H3.50742V14.0609H4.95168V16.8463ZM4.95168 13.7514H3.50742V11.1724H4.95168V13.7514ZM4.95168 10.8629H3.50742V8.07754H4.95168V10.8629ZM4.95168 7.76805H3.50742V5.08586H4.95168V7.76805ZM4.95168 4.87953H3.50742V2.19734H4.95168V4.87953ZM12.3793 29.4319H5.98329V28.0908H12.3793V29.4319ZM12.3793 27.7814H5.98329V26.5434H12.3793V27.7814ZM12.3793 26.1308H5.98329V24.8928H12.3793V26.1308ZM12.3793 24.5834H5.98329V23.1391H12.3793V24.5834ZM12.3793 22.9328H5.98329V21.6948H12.3793V22.9328ZM12.3793 21.3854H5.98329V20.0443H12.3793V21.3854ZM12.3793 19.7348H5.98329V18.2905H12.3793V19.7348ZM12.3793 18.0842H5.98329V16.8463H12.3793V18.0842ZM12.3793 16.5368H5.98329V15.1957H12.3793V16.5368ZM12.3793 14.8862H5.98329V13.4419H12.3793V14.8862ZM12.3793 13.1324H5.98329V11.7913H12.3793V13.1324ZM12.3793 11.6882H5.98329V10.2439H12.3793V11.6882ZM12.3793 10.0376H5.98329V8.59335H12.3793V10.0376ZM12.3793 8.28386H5.98329V7.04592H12.3793V8.28386ZM12.3793 6.63328H5.98329V5.39534H12.3793V6.63328ZM12.3793 5.08586H5.98329V3.74476H12.3793V5.08586ZM12.3793 3.43528H5.98329V2.19734H12.3793V3.43528ZM37.9633 0V30.3604H46.4226V26.5434H49.8269V30.3604H50.7553V1.06256H45.9274L37.9633 0ZM48.4858 22.9328H49.8269V25.7181H48.4858V22.9328ZM48.4858 20.0443H49.8269V22.8296H48.4858V20.0443ZM48.4858 17.1557H49.8269V19.7348H48.4858V17.1557ZM48.4858 14.0609H49.8269V16.8463H48.4858V14.0609ZM48.4858 11.1724H49.8269V13.7514H48.4858V11.1724ZM48.4858 8.07754H49.8269V10.8629H48.4858V8.07754ZM48.4858 5.08586H49.8269V7.76805H48.4858V5.08586ZM48.4858 2.19734H49.8269V4.87953H48.4858V2.19734ZM46.4226 22.9328H47.8668V25.7181H46.4226V22.9328ZM46.4226 20.0443H47.8668V22.8296H46.4226V20.0443ZM46.4226 17.1557H47.8668V19.7348H46.4226V17.1557ZM46.4226 14.0609H47.8668V16.8463H46.4226V14.0609ZM46.4226 11.1724H47.8668V13.7514H46.4226V11.1724ZM46.4226 8.07754H47.8668V10.8629H46.4226V8.07754ZM46.4226 5.08586H47.8668V7.76805H46.4226V5.08586ZM46.4226 2.19734H47.8668V4.87953H46.4226V2.19734ZM38.9949 28.0908H45.3909V29.4319H38.9949V28.0908ZM38.9949 26.5434H45.3909V27.7814H38.9949V26.5434ZM38.9949 24.8928H45.3909V26.1308H38.9949V24.8928ZM38.9949 23.1391H45.3909V24.5834H38.9949V23.1391ZM38.9949 21.6948H45.3909V22.9328H38.9949V21.6948ZM38.9949 20.0443H45.3909V21.3854H38.9949V20.0443ZM38.9949 18.2905H45.3909V19.7348H38.9949V18.2905ZM38.9949 16.8463H45.3909V18.0842H38.9949V16.8463ZM38.9949 15.1957H45.3909V16.5368H38.9949V15.1957ZM38.9949 13.4419H45.3909V14.8862H38.9949V13.4419ZM38.9949 11.7913H45.3909V13.1324H38.9949V11.7913ZM38.9949 10.2439H45.3909V11.6882H38.9949V10.2439ZM38.9949 8.59335H45.3909V10.0376H38.9949V8.59335ZM38.9949 7.04592H45.3909V8.28386H38.9949V7.04592ZM38.9949 5.39534H45.3909V6.63328H38.9949V5.39534ZM38.9949 3.74476H45.3909V5.08586H38.9949V3.74476ZM38.9949 2.19734H45.3909V3.43528H38.9949V2.19734Z" fill="#B91D18"/>
<path d="M0 30.1851H51.5807V31H0V30.1851Z" fill="#B91D18"/>
</svg>
