<svg width="33" height="33" viewBox="0 0 33 33" fill="none" xmlns="http://www.w3.org/2000/svg">
<path d="M32.5609 30.4395L24.048 21.9266C25.9634 19.5361 27.0049 16.5632 27 13.5C27 6.04425 20.9561 0 13.5 0C6.04425 0 0 6.04425 0 13.5C0 20.9557 6.04425 27 13.5 27C16.6875 27 19.617 25.8952 21.9266 24.0476L30.4395 32.5605C30.5786 32.7 30.7439 32.8106 30.9259 32.8861C31.1079 32.9615 31.303 33.0002 31.5 33C31.7967 33 32.0867 32.9121 32.3333 32.7473C32.58 32.5825 32.7723 32.3482 32.8858 32.0742C32.9994 31.8001 33.0291 31.4985 32.9713 31.2075C32.9134 30.9166 32.7706 30.6493 32.5609 30.4395ZM13.5 24C7.701 24 3 19.299 3 13.5C3 7.701 7.701 3 13.5 3C19.2994 3 24 7.701 24 13.5C24 19.299 19.2994 24 13.5 24Z" fill="black"/>
</svg>
